<?xml version="1.0" encoding="utf-8"?>
<!-- Generator: Adobe Illustrator 17.0.0, SVG Export Plug-In . SVG Version: 6.00 Build 0)  -->
<!DOCTYPE svg PUBLIC "-//W3C//DTD SVG 1.1//EN" "http://www.w3.org/Graphics/SVG/1.1/DTD/svg11.dtd">
<svg version="1.1" id="图层_1" xmlns="http://www.w3.org/2000/svg" xmlns:xlink="http://www.w3.org/1999/xlink" x="0px" y="0px"
	 width="815.087px" height="667.744px" viewBox="0 0 815.087 667.744" enable-background="new 0 0 815.087 667.744"
	 xml:space="preserve">
<path fill-rule="evenodd" clip-rule="evenodd" fill="#272536" d="M292.198,140.56c0,26.062-18.11,47.19-40.451,47.19H40.451
	C18.11,187.751,0,166.623,0,140.56V47.19C0,21.128,18.11,0,40.451,0h211.297c22.34,0,40.451,21.128,40.451,47.19V140.56z"/>
<path fill-rule="evenodd" clip-rule="evenodd" fill="#272536" d="M815.087,140.56c0,26.062-29.624,47.19-66.167,47.19h-345.63
	c-36.543,0-66.167-21.128-66.167-47.19V47.19c0-26.062,29.624-47.19,66.167-47.19h345.63c36.543,0,66.167,21.128,66.167,47.19
	V140.56z"/>
<path fill-rule="evenodd" clip-rule="evenodd" fill="#272536" d="M292.198,379.864c0,26.062-18.11,47.19-40.451,47.19H40.451
	C18.11,427.054,0,405.926,0,379.864v-93.37c0-26.062,18.11-47.19,40.451-47.19h211.297c22.34,0,40.451,21.128,40.451,47.19V379.864z
	"/>
<path fill-rule="evenodd" clip-rule="evenodd" fill="#272536" d="M815.087,379.864c0,26.062-29.624,47.19-66.167,47.19h-345.63
	c-36.543,0-66.167-21.128-66.167-47.19v-93.37c0-26.062,29.624-47.19,66.167-47.19h345.63c36.543,0,66.167,21.128,66.167,47.19
	V379.864z"/>
<path fill-rule="evenodd" clip-rule="evenodd" fill="#272536" d="M292.198,620.554c0,26.062-18.11,47.19-40.451,47.19H40.451
	C18.11,667.744,0,646.617,0,620.554v-93.37c0-26.062,18.11-47.19,40.451-47.19h211.297c22.34,0,40.451,21.128,40.451,47.19V620.554z
	"/>
<path fill-rule="evenodd" clip-rule="evenodd" fill="#272536" d="M815.087,620.554c0,26.062-29.624,47.19-66.167,47.19h-345.63
	c-36.543,0-66.167-21.128-66.167-47.19v-93.37c0-26.062,29.624-47.19,66.167-47.19h345.63c36.543,0,66.167,21.128,66.167,47.19
	V620.554z"/>
</svg>
